<svg xmlns="http://www.w3.org/2000/svg" width="91.495" height="92.894" viewBox="0 0 91.495 92.894">
  <g id="Group_14371" data-name="Group 14371" transform="translate(-55 -397)">
    <g id="Group_14446" data-name="Group 14446">
      <path id="Path_2692" data-name="Path 2692" d="M2824.485,805.992s14.829-51.9,51.029-42.742c0,.364,24.389,5.7,37.246,39.288,1.694,7.052,3.263,18.039-1.047,24.825-1.064,3.768-32.71,39.689-61.5,23.552-.436-.436-30.722-21.319-26.884-41.469A16.777,16.777,0,0,1,2824.485,805.992Z" transform="translate(-2767.997 -365.167)" fill="#f6f6f6"/>
      <g id="Group_14366" data-name="Group 14366" transform="translate(2.5 -0.197)">
        <g id="Icon_ionic-ios-card" data-name="Icon ionic-ios-card" transform="translate(80.25 425.447)">
          <path id="Path_2703" data-name="Path 2703" d="M33.75,9A2.257,2.257,0,0,0,31.5,6.75H4.5A2.257,2.257,0,0,0,2.25,9v3.375h31.5Z" fill="#f48131"/>
          <path id="Path_2704" data-name="Path 2704" d="M2.25,27A2.257,2.257,0,0,0,4.5,29.25h27A2.257,2.257,0,0,0,33.75,27V15.75H2.25Zm9.984-3.375H23.766a.987.987,0,0,1,.984.984h0a.987.987,0,0,1-.984.984H12.234a.987.987,0,0,1-.984-.984h0A.987.987,0,0,1,12.234,23.625Zm-5.062,0h.844A.987.987,0,0,1,9,24.609H9a.987.987,0,0,1-.984.984H7.172a.987.987,0,0,1-.984-.984h0A.987.987,0,0,1,7.172,23.625Z" fill="#f48131"/>
        </g>
      </g>
    </g>
  </g>
</svg>
