<svg xmlns="http://www.w3.org/2000/svg" width="91.495" height="92.894" viewBox="0 0 91.495 92.894">
  <g id="Group_14372" data-name="Group 14372" transform="translate(-55 -208)">
    <path id="Path_2493" data-name="Path 2493" d="M2824.485,805.992s14.829-51.9,51.029-42.742c0,.364,24.389,5.7,37.246,39.288,1.694,7.052,3.263,18.039-1.047,24.825-1.064,3.768-32.71,39.689-61.5,23.552-.436-.436-30.722-21.319-26.884-41.469A16.777,16.777,0,0,1,2824.485,805.992Z" transform="translate(-2767.997 -554.167)" fill="#f6f6f6"/>
    <path id="Icon_material-notifications-active" data-name="Icon material-notifications-active" d="M11.773,6.235,9.524,3.986A16.4,16.4,0,0,0,3.045,16.331H6.19A13.282,13.282,0,0,1,11.773,6.235Zm19.485,10.1H34.4A16.5,16.5,0,0,0,27.924,3.986L25.691,6.235a13.36,13.36,0,0,1,5.567,10.1Zm-3.1.786c0-4.828-2.579-8.87-7.077-9.939V6.109a2.359,2.359,0,1,0-4.718,0V7.178c-4.514,1.069-7.077,5.1-7.077,9.939v7.863L6.143,28.126V29.7H31.306V28.126L28.16,24.981Zm-9.436,17.3a2.755,2.755,0,0,0,.629-.063A3.191,3.191,0,0,0,21.618,32.5a3.157,3.157,0,0,0,.236-1.227H15.563A3.168,3.168,0,0,0,18.724,34.417Z" transform="translate(81.955 235.25)" fill="#f48131"/>
  </g>
</svg>
