<svg xmlns="http://www.w3.org/2000/svg" width="91.495" height="92.894" viewBox="0 0 91.495 92.894">
  <g id="Group_14370" data-name="Group 14370" transform="translate(-229 -397)">
    <g id="Group_14447" data-name="Group 14447">
      <path id="Path_2694" data-name="Path 2694" d="M2824.485,805.992s14.829-51.9,51.029-42.742c0,.364,24.389,5.7,37.246,39.288,1.694,7.052,3.263,18.039-1.047,24.825-1.064,3.768-32.71,39.689-61.5,23.552-.436-.436-30.722-21.319-26.884-41.469A16.777,16.777,0,0,1,2824.485,805.992Z" transform="translate(-2593.997 -365.167)" fill="#f6f6f6"/>
      <path id="Icon_metro-search" data-name="Icon metro-search" d="M33.557,29.14,25.982,22.7a3.38,3.38,0,0,0-2.3-1,11.993,11.993,0,1,0-1.342,1.342,3.38,3.38,0,0,0,1,2.3l6.442,7.574a2.686,2.686,0,1,0,3.774-3.774ZM14.562,21.914a7.994,7.994,0,1,1,7.994-7.994,7.994,7.994,0,0,1-7.994,7.994Z" transform="translate(256.429 425.072)" fill="#f48131"/>
    </g>
  </g>
</svg>
