<svg xmlns="http://www.w3.org/2000/svg" width="91.495" height="92.894" viewBox="0 0 91.495 92.894">
  <g id="Group_14449" data-name="Group 14449" transform="translate(-229 -586)">
    <path id="Path_2695" data-name="Path 2695" d="M2824.485,805.992s14.829-51.9,51.029-42.742c0,.364,24.389,5.7,37.246,39.288,1.694,7.052,3.263,18.039-1.047,24.825-1.064,3.768-32.71,39.689-61.5,23.552-.436-.436-30.722-21.319-26.884-41.469A16.777,16.777,0,0,1,2824.485,805.992Z" transform="translate(-2593.997 -176.167)" fill="#f6f6f6"/>
    <path id="Icon_metro-file-text" data-name="Icon metro-file-text" d="M30.22,8.829a27.32,27.32,0,0,0-2.626-3,27.323,27.323,0,0,0-3-2.626c-1.554-1.139-2.307-1.271-2.739-1.271H6.909A2.413,2.413,0,0,0,4.5,4.338V30.367a2.413,2.413,0,0,0,2.41,2.41H29.081a2.413,2.413,0,0,0,2.41-2.41v-18.8c0-.432-.132-1.185-1.271-2.739Zm-3.99-1.64A26.3,26.3,0,0,1,28.417,9.64H23.779V5a26.268,26.268,0,0,1,2.451,2.186Zm3.333,23.178a.489.489,0,0,1-.482.482H6.909a.489.489,0,0,1-.482-.482V4.338a.489.489,0,0,1,.482-.482H21.851V10.6a.964.964,0,0,0,.964.964h6.748Zm-4.82-3.374h-13.5a.964.964,0,1,1,0-1.928h13.5a.964.964,0,0,1,0,1.928Zm0-3.856h-13.5a.964.964,0,1,1,0-1.928h13.5a.964.964,0,0,1,0,1.928Zm0-3.856h-13.5a.964.964,0,1,1,0-1.928h13.5a.964.964,0,1,1,0,1.928Z" transform="translate(256.501 615.072)" fill="#f48131"/>
  </g>
</svg>
