<svg xmlns="http://www.w3.org/2000/svg" width="91.495" height="92.894" viewBox="0 0 91.495 92.894">
  <g id="Group_14445" data-name="Group 14445" transform="translate(-229 -208)">
    <path id="Path_2691" data-name="Path 2691" d="M2824.485,805.992s14.829-51.9,51.029-42.742c0,.364,24.389,5.7,37.246,39.288,1.694,7.052,3.263,18.039-1.047,24.825-1.064,3.768-32.71,39.689-61.5,23.552-.436-.436-30.722-21.319-26.884-41.469A16.777,16.777,0,0,1,2824.485,805.992Z" transform="translate(-2593.997 -554.167)" fill="#f6f6f6"/>
    <g id="Icon_ionic-md-qr-scanner" data-name="Icon ionic-md-qr-scanner" transform="translate(256.625 236.5)">
      <path id="Path_2699" data-name="Path 2699" d="M6.75,8.733a.839.839,0,0,1,.858-.858h4.767V4.5h-4.7a4.27,4.27,0,0,0-4.3,4.233V13.5H6.75Z" fill="#f48131"/>
      <path id="Path_2700" data-name="Path 2700" d="M28.378,4.5H23.625V7.875H28.35a.875.875,0,0,1,.9.858V13.5h3.375V8.733A4.227,4.227,0,0,0,28.378,4.5Z" fill="#f48131"/>
      <path id="Path_2701" data-name="Path 2701" d="M29.25,27.2a.839.839,0,0,1-.858.858H23.625V31.5h4.767a4.27,4.27,0,0,0,4.233-4.3V22.5H29.25Z" fill="#f48131"/>
      <path id="Path_2702" data-name="Path 2702" d="M7.608,28.055A.839.839,0,0,1,6.75,27.2V22.5H3.375v4.7a4.33,4.33,0,0,0,4.3,4.3h4.7V28.055Z" fill="#f48131"/>
    </g>
  </g>
</svg>
