<svg id="Group_14437" data-name="Group 14437" xmlns="http://www.w3.org/2000/svg" width="64.861" height="58.755" viewBox="0 0 64.861 58.755">
  <path id="Path_2" data-name="Path 2" d="M-284.6,540.295a13.413,13.413,0,0,1-13.413,13.412h-38.036a13.413,13.413,0,0,1-13.413-13.412h0a13.413,13.413,0,0,1,13.413-13.413h38.036A13.413,13.413,0,0,1-284.6,540.295Z" transform="translate(349.462 -526.882)" fill="#f48131"/>
  <path id="Path_3" data-name="Path 3" d="M-307.122,883.306a13.413,13.413,0,0,1-13.413,13.412h-15.514a13.413,13.413,0,0,1-13.413-13.412h0a13.413,13.413,0,0,1,13.413-13.413h15.514a13.413,13.413,0,0,1,13.413,13.413Z" transform="translate(349.462 -837.963)" fill="#fff"/>
  <path id="Path_4" data-name="Path 4" d="M-328.291,869.892h-7.757A13.413,13.413,0,0,0-349.461,883.3a13.413,13.413,0,0,0,13.412,13.413h7.757Z" transform="translate(349.461 -837.962)" fill="#f48131"/>
  <path id="Path_5" data-name="Path 5" d="M-307.515,526.881h-28.535a13.413,13.413,0,0,0-13.413,13.413,13.413,13.413,0,0,0,13.413,13.412h28.535Z" transform="translate(349.462 -526.881)" fill="#fff"/>
</svg>
