<svg xmlns="http://www.w3.org/2000/svg" width="91.495" height="92.894" viewBox="0 0 91.495 92.894">
  <g id="Group_14369" data-name="Group 14369" transform="translate(-55 -586)">
    <path id="Path_2693" data-name="Path 2693" d="M2824.485,805.992s14.829-51.9,51.029-42.742c0,.364,24.389,5.7,37.246,39.288,1.694,7.052,3.263,18.039-1.047,24.825-1.064,3.768-32.71,39.689-61.5,23.552-.436-.436-30.722-21.319-26.884-41.469A16.777,16.777,0,0,1,2824.485,805.992Z" transform="translate(-2767.997 -176.167)" fill="#f6f6f6"/>
    <g id="Group_14367" data-name="Group 14367" transform="translate(-0.5 -0.447)">
      <path id="Icon_material-attach-money" data-name="Icon material-attach-money" d="M17.7,16.35c-3.4-.885-4.5-1.8-4.5-3.225,0-1.635,1.515-2.775,4.05-2.775,2.67,0,3.66,1.275,3.75,3.15h3.315A5.979,5.979,0,0,0,19.5,7.785V4.5H15V7.74c-2.91.63-5.25,2.52-5.25,5.415,0,3.465,2.865,5.19,7.05,6.2,3.75.9,4.5,2.22,4.5,3.615,0,1.035-.735,2.685-4.05,2.685-3.09,0-4.305-1.38-4.47-3.15H9.48c.18,3.285,2.64,5.13,5.52,5.745V31.5h4.5V28.275c2.925-.555,5.25-2.25,5.25-5.325C24.75,18.69,21.1,17.235,17.7,16.35Z" transform="translate(83.633 614.447)" fill="#f48131"/>
      <path id="Icon_material-compare-arrows" data-name="Icon material-compare-arrows" d="M13.515,21H3v3H13.515v4.5l5.985-6-5.985-6V21ZM4.485-5.5V-10H15v-3H4.485v-4.5l-5.985,6Z" transform="translate(92 626.947)" fill="#f48131"/>
    </g>
  </g>
</svg>
